<?xml version="1.0" standalone="no"?>
<!DOCTYPE svg PUBLIC "-//W3C//DTD SVG 20010904//EN"
 "http://www.w3.org/TR/2001/REC-SVG-20010904/DTD/svg10.dtd">
<svg version="1.0" xmlns="http://www.w3.org/2000/svg"
 width="600.000000pt" height="600.000000pt" viewBox="0 0 600.000000 600.000000"
 preserveAspectRatio="xMidYMid meet">

<g transform="translate(0.000000,600.000000) scale(0.100000,-0.100000)"
fill="#000000" stroke="none">
<path d="M1480 5644 c-306 -34 -501 -99 -723 -241 -650 -415 -928 -1330 -643
-2116 161 -445 496 -887 1081 -1427 247 -228 337 -307 965 -845 322 -276 619
-531 660 -567 88 -77 126 -98 175 -98 62 0 101 25 288 188 100 87 337 291 527
452 966 823 1308 1144 1602 1503 440 539 624 1040 579 1582 -63 757 -530 1352
-1196 1523 -448 116 -891 31 -1261 -241 -93 -68 -285 -264 -359 -365 -52 -71
-152 -227 -169 -265 -5 -9 -7 -9 -12 0 -16 36 -129 207 -185 282 -82 109 -242
270 -343 345 -259 191 -517 282 -820 291 -72 2 -147 1 -166 -1z m355 -376
c225 -51 414 -164 589 -350 154 -163 301 -407 390 -648 50 -132 91 -170 186
-170 98 0 134 36 195 190 238 611 634 961 1135 1006 97 8 269 -10 390 -42 440
-115 782 -497 890 -993 111 -506 -31 -996 -432 -1498 -302 -377 -594 -650
-1731 -1621 l-448 -382 -577 493 c-759 650 -911 786 -1198 1072 -380 380 -567
621 -709 917 -182 379 -212 773 -88 1163 38 121 134 309 207 406 216 286 497
442 866 483 71 8 247 -6 335 -26z"/>
</g>
</svg>
